<svg xmlns="http://www.w3.org/2000/svg" width="52" height="34" viewBox="0 0 52 34">
  <g id="Grupo_19556" data-name="Grupo 19556" transform="translate(-1405.512 -3660.262)">
    <g id="Rectángulo_6001" data-name="Rectángulo 6001" transform="translate(1405.512 3660.262)" fill="#fff" stroke="#ebebeb" stroke-width="1">
      <rect width="52" height="34" rx="4" stroke="none"/>
      <rect x="0.5" y="0.5" width="51" height="33" rx="3.5" fill="none"/>
    </g>
    <g id="visa" transform="translate(1412.068 3671.776)">
      <path id="Trazado_1468" data-name="Trazado 1468" d="M184.8,190.739l1.838-10.339h2.872l-1.781,10.339Z" transform="translate(-171.532 -180.055)" fill="#3c58bf"/>
      <path id="Trazado_1469" data-name="Trazado 1469" d="M184.8,190.739l2.355-10.339h2.355l-1.781,10.339Z" transform="translate(-171.532 -180.055)" fill="#293688"/>
      <path id="Trazado_1470" data-name="Trazado 1470" d="M256.788,176.06a7.286,7.286,0,0,0-2.642-.46c-2.872,0-4.94,1.436-4.94,3.5,0,1.551,1.436,2.355,2.585,2.872s1.493.862,1.493,1.321c0,.689-.919,1.034-1.723,1.034a6.243,6.243,0,0,1-2.757-.574l-.4-.172-.4,2.355a9.313,9.313,0,0,0,3.274.574c3.044,0,5.055-1.436,5.055-3.619,0-1.206-.747-2.125-2.47-2.872-1.034-.517-1.666-.8-1.666-1.321,0-.46.517-.919,1.666-.919a5.268,5.268,0,0,1,2.183.4l.287.115.46-2.24Z" transform="translate(-230.194 -175.6)" fill="#3c58bf"/>
      <path id="Trazado_1471" data-name="Trazado 1471" d="M256.788,176.06a7.286,7.286,0,0,0-2.642-.46c-2.872,0-4.423,1.436-4.423,3.5a3,3,0,0,0,2.068,2.872c1.149.517,1.493.862,1.493,1.321,0,.689-.919,1.034-1.723,1.034a6.243,6.243,0,0,1-2.757-.574l-.4-.172-.4,2.355a9.313,9.313,0,0,0,3.274.574c3.044,0,5.055-1.436,5.055-3.619,0-1.206-.747-2.125-2.47-2.872-1.034-.517-1.666-.8-1.666-1.321,0-.46.517-.919,1.666-.919a5.268,5.268,0,0,1,2.183.4l.287.115.46-2.24Z" transform="translate(-230.194 -175.6)" fill="#293688"/>
      <path id="Trazado_1472" data-name="Trazado 1472" d="M364.2,180.4c-.689,0-1.206.057-1.493.747l-4.308,9.592h3.1l.574-1.723h3.676l.345,1.723h2.757L366.441,180.4Zm-1.321,6.893c.172-.517,1.149-3.044,1.149-3.044s.23-.632.4-1.034l.172.976s.574,2.585.689,3.159H362.88Z" transform="translate(-332.668 -180.055)" fill="#3c58bf"/>
      <path id="Trazado_1473" data-name="Trazado 1473" d="M364.891,180.4c-.689,0-1.206.057-1.493.747l-5,9.592h3.1l.574-1.723h3.676l.345,1.723h2.757L366.441,180.4Zm-2.01,6.893c.23-.574,1.149-3.044,1.149-3.044s.23-.632.4-1.034l.172.976s.574,2.585.689,3.159H362.88Z" transform="translate(-332.668 -180.055)" fill="#293688"/>
      <path id="Trazado_1474" data-name="Trazado 1474" d="M55.508,188.38l-.287-1.493a8.326,8.326,0,0,0-4.021-4.538l2.585,9.19h3.1L61.539,181.2h-3.1Z" transform="translate(-47.524 -180.798)" fill="#3c58bf"/>
      <path id="Trazado_1475" data-name="Trazado 1475" d="M55.508,188.38l-.287-1.493a8.326,8.326,0,0,0-4.021-4.538l2.585,9.19h3.1L61.539,181.2H59.012Z" transform="translate(-47.524 -180.798)" fill="#293688"/>
      <path id="Trazado_1476" data-name="Trazado 1476" d="M0,180.4l.517.115c3.676.862,6.2,3.044,7.18,5.629l-1.034-4.882c-.172-.689-.689-.862-1.321-.862Z" transform="translate(0 -180.055)" fill="#ffbc00"/>
      <path id="Trazado_1477" data-name="Trazado 1477" d="M0,180.4H0c3.676.862,6.72,3.1,7.7,5.686l-.976-4.078a1.4,1.4,0,0,0-1.379-1.091Z" transform="translate(0 -180.055)" fill="#f7981d"/>
      <path id="Trazado_1478" data-name="Trazado 1478" d="M0,180.4H0c3.676.862,6.72,3.1,7.7,5.686l-.689-2.24A2.026,2.026,0,0,0,5.8,182.181Z" transform="translate(0 -180.055)" fill="#ed7c00"/>
      <g id="Grupo_1602" data-name="Grupo 1602" transform="translate(3.733 1.493)">
        <path id="Trazado_1479" data-name="Trazado 1479" d="M59.122,202.144l-1.953-1.953-.919,2.183-.23-1.436A8.326,8.326,0,0,0,52,196.4l2.585,9.19h3.1Z" transform="translate(-52 -196.4)" fill="#051244"/>
        <path id="Trazado_1480" data-name="Trazado 1480" d="M187.729,291.727l-2.47-2.527-.459,2.527Z" transform="translate(-175.265 -282.537)" fill="#051244"/>
        <path id="Trazado_1481" data-name="Trazado 1481" d="M253,274.8h0c.23.23.345.4.287.632,0,.689-.919,1.034-1.723,1.034a6.243,6.243,0,0,1-2.757-.574l-.4-.172-.4,2.355a9.314,9.314,0,0,0,3.274.574,5.687,5.687,0,0,0,4.193-1.436Z" transform="translate(-233.928 -269.171)" fill="#051244"/>
        <path id="Trazado_1482" data-name="Trazado 1482" d="M364,227.124h2.7l.574-1.723h3.676l.345,1.723h2.757l-.976-4.193-3.446-3.331.172.919s.574,2.585.689,3.159h-2.412c.23-.574,1.149-3.044,1.149-3.044s.23-.632.4-1.034" transform="translate(-341.599 -217.934)" fill="#051244"/>
      </g>
    </g>
  </g>
</svg>
